HIERARCHY
ROOT Hips
{
	OFFSET -32.860001 56.121803 44.745396
	CHANNELS 6 Xposition Yposition Zposition Zrotation Xrotation Yrotation
	JOINT Chest
	{
		OFFSET -0.637402 0.831600 5.390099
		CHANNELS 6 Xposition Yposition Zposition Zrotation Xrotation Yrotation
		JOINT Chest2
		{
			OFFSET 0.000000 0.000000 4.429901
			CHANNELS 6 Xposition Yposition Zposition Zrotation Xrotation Yrotation
			JOINT Neck
			{
				OFFSET 0.000000 0.000000 10.301395
				CHANNELS 6 Xposition Yposition Zposition Zrotation Xrotation Yrotation
				JOINT Head
				{
					OFFSET 0.000000 0.000000 2.173897
					CHANNELS 6 Xposition Yposition Zposition Zrotation Xrotation Yrotation
					End Site
					{
						OFFSET 0.000000 0.000000 8.298004
					}
				}
			}
			JOINT LeftCollar
			{
				OFFSET 2.142401 -0.572701 5.717800
				CHANNELS 6 Xposition Yposition Zposition Zrotation Xrotation Yrotation
				JOINT LeftShoulder
				{
					OFFSET 5.674000 0.000000 0.000000
					CHANNELS 6 Xposition Yposition Zposition Zrotation Xrotation Yrotation
					JOINT LeftElbow
					{
						OFFSET 0.000000 0.000000 -12.238701
						CHANNELS 6 Xposition Yposition Zposition Zrotation Xrotation Yrotation
						JOINT LeftWrist
						{
							OFFSET 0.000000 0.000000 -10.253700
							CHANNELS 6 Xposition Yposition Zposition Zrotation Xrotation Yrotation
							End Site
							{
								OFFSET 0.000000 0.000000 -2.173901
							}
						}
					}
				}
			}
			JOINT RightCollar
			{
				OFFSET -2.882599 -1.580101 6.695801
				CHANNELS 6 Xposition Yposition Zposition Zrotation Xrotation Yrotation
				JOINT RightShoulder
				{
					OFFSET -4.235600 0.000000 0.000000
					CHANNELS 6 Xposition Yposition Zposition Zrotation Xrotation Yrotation
					JOINT RightElbow
					{
						OFFSET 0.000000 0.000000 -10.709900
						CHANNELS 6 Xposition Yposition Zposition Zrotation Xrotation Yrotation
						JOINT RightWrist
						{
							OFFSET 0.000000 0.000000 -11.716801
							CHANNELS 6 Xposition Yposition Zposition Zrotation Xrotation Yrotation
							End Site
							{
								OFFSET 0.000000 0.000000 -2.173901
							}
						}
					}
				}
			}
		}
	}
	JOINT LeftHip
	{
		OFFSET 2.279499 0.210400 -2.475502
		CHANNELS 6 Xposition Yposition Zposition Zrotation Xrotation Yrotation
		JOINT LeftKnee
		{
			OFFSET 0.000000 -0.000004 -20.742800
			CHANNELS 6 Xposition Yposition Zposition Zrotation Xrotation Yrotation
			JOINT LeftAnkle
			{
				OFFSET 0.000000 0.000000 -16.666000
				CHANNELS 6 Xposition Yposition Zposition Zrotation Xrotation Yrotation
				End Site
				{
					OFFSET 0.000000 -8.310898 0.000000
				}
			}
		}
	}
	JOINT RightHip
	{
		OFFSET -1.961899 0.232300 -2.727402
		CHANNELS 6 Xposition Yposition Zposition Zrotation Xrotation Yrotation
		JOINT RightKnee
		{
			OFFSET 0.000000 -0.000004 -20.526800
			CHANNELS 6 Xposition Yposition Zposition Zrotation Xrotation Yrotation
			JOINT RightAnkle
			{
				OFFSET 0.000000 0.000000 -16.867300
				CHANNELS 6 Xposition Yposition Zposition Zrotation Xrotation Yrotation
				End Site
				{
					OFFSET 0.000000 -7.186401 0.000000
				}
			}
		}
	}
}
MOTION
Frames: 4
Frame Time: 0.041667
61.752609 58.723602 22.033794 -221.511955 30.327525 2.470190 -0.637396 0.831601 5.390108 24.280279 40.811873 -16.002081 -0.000012 -0.000004 4.429893 -18.123234 -7.153460 -1.800307 -0.000004 0.000005 10.301415 367.002648 24.875797 -4.043221 -0.000004 0.000005 2.173895 -359.801388 4.633899 0.955678 2.142401 -0.572696 5.717811 -19.507577 9.960064 4.536157 5.674011 0.000006 0.000010 136.677345 192.190964 103.071366 0.000007 -0.000001 -12.238701 -129.212248 -175.931029 -174.970172 0.000002 0.000001 -10.253701 -158.872181 21.098412 -28.781563 -2.882595 -1.580096 6.695807 10.459943 7.680235 -17.204500 -4.235611 -0.000007 0.000010 49.009783 -16.594739 76.725578 0.000020 -0.000003 -10.709900 -27.498398 -9.383880 -4.570886 -0.000007 -0.000006 -11.716805 51.648770 10.523640 24.176411 2.279495 0.210403 -2.475497 112.171609 -40.312709 98.912805 -0.000005 0.000001 -20.742802 -141.293801 -18.474427 150.568132 -0.000003 0.000001 -16.666000 91.958593 7.277429 52.277342 -1.961894 0.232301 -2.727398 -138.457319 -35.812980 -143.494734 0.000000 -0.000005 -20.526806 148.984977 24.038731 -120.679457 0.000004 0.000007 -16.867302 -28.459740 20.624619 -9.934951
61.690399 58.803299 22.120888 -221.562772 31.087196 2.581787 -0.637405 0.831603 5.390102 23.379596 41.447767 -15.473998 -0.000005 0.000001 4.429891 -16.923088 -7.444805 -1.747080 -0.000007 0.000004 10.301389 366.878174 26.400749 -3.611215 -0.000004 0.000008 2.173902 -359.848981 5.198645 0.875651 2.142395 -0.572697 5.717796 -19.806162 10.132999 5.567918 5.674004 0.000005 -0.000008 136.640776 192.441563 101.936707 0.000005 -0.000000 -12.238700 -129.347554 -175.645609 -174.770307 0.000003 -0.000002 -10.253700 -159.442051 21.369738 -28.958014 -2.882603 -1.580093 6.695786 10.799446 8.677112 -18.550567 -4.235604 -0.000002 0.000009 48.930560 -16.513106 78.806415 0.000001 -0.000003 -10.709900 -27.671950 -9.529743 -4.908325 -0.000002 -0.000011 -11.716801 51.643726 10.609190 24.781386 2.279491 0.210405 -2.475501 112.605292 -40.469055 99.776728 -0.000006 -0.000009 -20.742800 -141.080972 -18.130821 150.344744 0.000001 -0.000006 -16.666010 91.725028 7.047372 52.156954 -1.961900 0.232303 -2.727406 -138.811055 -35.416699 -143.705309 0.000001 -0.000004 -20.526798 148.638153 24.417189 -120.522731 -0.000008 0.000003 -16.867308 -28.706028 20.616738 -10.148373
61.625710 58.880905 22.231989 -221.647261 31.900112 2.687837 -0.637404 0.831598 5.390098 22.507381 41.912875 -14.901555 -0.000002 0.000003 4.429901 -15.871737 -7.805013 -1.711709 0.000002 0.000002 10.301390 366.691055 27.751110 -3.239956 -0.000001 0.000004 2.173885 -360.013588 5.604587 0.733105 2.142408 -0.572696 5.717802 -20.616622 9.834806 7.075682 5.673985 0.000007 -0.000013 137.181795 191.975553 100.879176 0.000005 0.000006 -12.238706 -124.026564 -175.890868 -173.962732 0.000003 -0.000001 -10.253701 -165.121968 22.001880 -29.035455 -2.882601 -1.580095 6.695801 11.357253 9.890450 -20.360005 -4.235613 -0.000001 0.000004 48.951600 -16.457633 81.315458 0.000014 0.000003 -10.709895 -27.445134 -9.606280 -5.187884 -0.000007 -0.000013 -11.716801 51.468952 10.615937 25.189324 2.279503 0.210397 -2.475506 113.060866 -40.520251 100.668977 0.000001 -0.000012 -20.742811 -140.903784 -17.861573 150.054516 -0.000003 0.000009 -16.666014 91.470419 6.835540 52.042039 -1.961895 0.232306 -2.727398 -139.049483 -35.073038 -143.901827 0.000008 -0.000005 -20.526798 148.457864 24.869544 -120.253376 0.000003 0.000004 -16.867304 -28.745531 20.529032 -10.186613
61.559097 58.956497 22.360579 -221.759481 32.672196 2.795661 -0.637406 0.831596 5.390086 21.704984 42.300021 -14.361241 0.000001 0.000000 4.429893 -14.919563 -8.209518 -1.686629 -0.000010 -0.000001 10.301397 366.426781 28.946243 -3.000994 -0.000003 -0.000003 2.173908 -360.154591 5.881644 0.714449 2.142395 -0.572698 5.717798 -20.551633 10.439761 8.564893 5.673989 0.000002 0.000003 136.630326 191.640259 99.219624 -0.000003 -0.000001 -12.238695 -119.252166 -176.078220 -173.129873 -0.000004 -0.000003 -10.253699 -169.886981 22.580703 -29.105540 -2.882604 -1.580098 6.695794 11.896674 11.255712 -21.656530 -4.235600 -0.000004 -0.000006 49.066317 -16.874650 83.552099 0.000016 0.000008 -10.709904 -26.988015 -9.650039 -5.435639 -0.000010 0.000005 -11.716804 51.105753 10.566290 25.534297 2.279493 0.210400 -2.475515 113.432032 -40.632088 101.477446 -0.000006 -0.000012 -20.742809 -140.684985 -17.602427 149.702911 -0.000001 -0.000000 -16.666004 91.294262 6.703962 51.758668 -1.961897 0.232304 -2.727419 -139.132046 -34.788452 -144.014580 -0.000001 -0.000013 -20.526810 148.432797 25.352161 -119.914189 -0.000007 -0.000002 -16.867304 -28.656912 20.371481 -10.116859
